<svg id="Layer_1" data-name="Layer 1" xmlns="http://www.w3.org/2000/svg" viewBox="0 0 64 53"><defs><style>.cls-1{fill:#31d8f4;}.cls-2{fill:#cecece;}.cls-3{fill:none;}.cls-4{fill:#5b5b5b;}.cls-5{fill:#eaeaea;}</style></defs><title>cuteputers</title><rect class="cls-1" x="1.25" y="2.25" width="61.57" height="31.34"/><path class="cls-2" d="M44.93,51.75a1.07,1.07,0,0,1-1,1.16H20.28a1.07,1.07,0,0,1-1-1.16A13.23,13.23,0,0,0,24.54,41c0-9.42.21-1,.57-1h14c0.36,0,.57-8.47.57,1A13.05,13.05,0,0,0,44.93,51.75Z"/><polygon class="cls-3" points="3.34 33.58 60.66 33.68 60.72 3.87 3.41 3.76 3.34 33.58"/><path class="cls-4" d="M64.07,1.4A1.49,1.49,0,0,0,62.5-.08H1.65A1.56,1.56,0,0,0,.35,1.7V35.92H64ZM60.35,31.92h-57l0.07-28H60.35v28Z"/><path class="cls-5" d="M1.57,43.34l60.85,0.11A1.82,1.82,0,0,0,64,41.62v-5.7H0V41.5S0.7,43.34,1.57,43.34Z"/><rect class="cls-4" x="27.77" y="19.72" width="2.83" height="2.83"/><rect class="cls-4" x="30.6" y="19.82" width="2.83" height="2.83"/><rect class="cls-4" x="33.47" y="19.79" width="2.83" height="2.83"/><rect class="cls-4" x="24.77" y="13.98" width="2.83" height="2.83"/><rect class="cls-4" x="36.47" y="13.98" width="2.83" height="2.83"/><rect class="cls-4" x="21.88" y="14" width="2.83" height="2.83"/><rect class="cls-4" x="39.36" y="14" width="2.83" height="2.83"/></svg>