<svg id="Layer_1" data-name="Layer 1" xmlns="http://www.w3.org/2000/svg" viewBox="0 0 64 53"><defs><style>.cls-1{fill:#31d8f4;}.cls-2{fill:#cecece;}.cls-3{fill:none;}.cls-4{fill:#5b5b5b;}.cls-5{fill:#eaeaea;}</style></defs><title>cuteputers</title><rect class="cls-1" x="1.42" y="2.33" width="61.57" height="31.34"/><path class="cls-2" d="M45.09,51.84a1.07,1.07,0,0,1-1,1.16H20.45a1.07,1.07,0,0,1-1-1.16A13.23,13.23,0,0,0,24.7,41c0-9.42.21-1,.57-1h14c0.36,0,.57-8.47.57,1A13.05,13.05,0,0,0,45.09,51.84Z"/><polygon class="cls-3" points="3.51 33.66 60.83 33.77 60.89 3.95 3.58 3.85 3.51 33.66"/><path class="cls-4" d="M64.24,1.48A1.49,1.49,0,0,0,62.67,0H1.81A1.56,1.56,0,0,0,.52,1.78V36H64.17ZM60.52,32h-57L3.6,4H60.52V32Z"/><path class="cls-5" d="M1.73,43.42l60.85,0.11a1.82,1.82,0,0,0,1.57-1.84V36h-64v5.58S0.87,43.42,1.73,43.42Z"/><rect class="cls-4" x="27.93" y="19.8" width="2.83" height="2.83"/><rect class="cls-4" x="30.77" y="22.63" width="2.83" height="2.83"/><rect class="cls-4" x="33.63" y="19.87" width="2.83" height="2.83"/><rect class="cls-4" x="24.93" y="14.06" width="2.83" height="2.83"/><rect class="cls-4" x="36.63" y="14.06" width="2.83" height="2.83"/><rect class="cls-4" x="24.93" y="11.2" width="2.83" height="2.83"/><rect class="cls-4" x="36.63" y="11.2" width="2.83" height="2.83"/></svg>