<svg id="Layer_1" data-name="Layer 1" xmlns="http://www.w3.org/2000/svg" viewBox="0 0 64 78.92"><defs><style>.cls-1{fill:#31d8f4;}.cls-2{fill:#cecece;}.cls-3{fill:none;}.cls-4{fill:#5b5b5b;}.cls-5{fill:#eaeaea;}.cls-6,.cls-7{fill:#fff;}.cls-6{stroke:#5b5b5b;stroke-miterlimit:10;stroke-width:2.83px;}</style></defs><title>cuteputers</title><rect class="cls-1" x="1.25" y="28.17" width="61.57" height="31.34"/><path class="cls-2" d="M44.93,77.67a1.07,1.07,0,0,1-1,1.16H20.28a1.07,1.07,0,0,1-1-1.16,13.23,13.23,0,0,0,5.22-10.8c0-9.42.21-1,.57-1h14c0.36,0,.57-8.47.57,1A13.05,13.05,0,0,0,44.93,77.67Z"/><polygon class="cls-3" points="3.34 59.49 60.66 59.6 60.72 29.79 3.41 29.68 3.34 59.49"/><path class="cls-4" d="M64.07,27.32a1.49,1.49,0,0,0-1.57-1.48H1.65a1.56,1.56,0,0,0-1.3,1.78V61.83H64ZM60.35,57.83h-57l0.07-28H60.35v28Z"/><path class="cls-5" d="M1.57,69.26l60.85,0.11A1.82,1.82,0,0,0,64,67.53v-5.7H0v5.58S0.7,69.26,1.57,69.26Z"/><rect class="cls-4" x="27.77" y="45.74" width="2.83" height="2.83"/><rect class="cls-4" x="30.6" y="45.74" width="2.83" height="2.83"/><rect class="cls-4" x="33.47" y="45.74" width="2.83" height="2.83"/><rect class="cls-4" x="14.76" y="39.9" width="2.83" height="2.83"/><rect class="cls-4" x="46.47" y="39.9" width="2.83" height="2.83"/><rect class="cls-6" x="10.5" y="1.52" width="43.32" height="13.98"/><rect class="cls-7" x="11.92" y="11.28" width="5.77" height="8.04"/><rect class="cls-4" x="14.87" y="16.92" width="2.83" height="2.83"/><rect class="cls-4" x="12.01" y="19.75" width="2.83" height="2.83"/><rect class="cls-4" x="9.11" y="14.74" width="2.83" height="9.97"/><rect class="cls-4" x="36.58" y="7" width="2.83" height="2.83"/><rect class="cls-4" x="25.25" y="7" width="2.83" height="2.83"/><rect class="cls-4" x="30.92" y="7" width="2.83" height="2.83"/></svg>