<svg id="Layer_1" data-name="Layer 1" xmlns="http://www.w3.org/2000/svg" viewBox="0 0 63.75 53"><defs><style>.cls-1{fill:#31d8f4;}.cls-2{fill:#cecece;}.cls-3{fill:none;}.cls-4{fill:#5b5b5b;}.cls-5{fill:#eaeaea;}</style></defs><title>cuteputers</title><rect class="cls-1" x="0.92" y="2.33" width="61.57" height="31.34"/><path class="cls-2" d="M44.59,51.84a1.07,1.07,0,0,1-1,1.16H19.95a1.07,1.07,0,0,1-1-1.16A13.23,13.23,0,0,0,24.2,41c0-9.42.21-1,.57-1h14c0.36,0,.57-8.47.57,1A13.05,13.05,0,0,0,44.59,51.84Z"/><polygon class="cls-3" points="3.01 33.66 60.33 33.77 60.39 3.95 3.08 3.85 3.01 33.66"/><path class="cls-4" d="M63.74,1.48A1.49,1.49,0,0,0,62.17,0H1.31A1.56,1.56,0,0,0,0,1.78V36H63.67ZM60,32H3L3.1,4H60V32Z"/><path class="cls-5" d="M1.23,43.42l60.85,0.11a1.82,1.82,0,0,0,1.57-1.84V36h-64v5.58S0.37,43.42,1.23,43.42Z"/><rect class="cls-4" x="27.43" y="19.8" width="2.83" height="2.83"/><rect class="cls-4" x="36.09" y="19.8" width="2.83" height="2.83"/><rect class="cls-4" x="24.55" y="19.8" width="2.83" height="2.83"/><rect class="cls-4" x="30.27" y="22.63" width="2.83" height="2.83"/><rect class="cls-4" x="27.49" y="22.63" width="2.83" height="2.83"/><rect class="cls-4" x="33.03" y="22.63" width="2.83" height="2.83"/><rect class="cls-4" x="30.27" y="19.84" width="2.83" height="2.83"/><rect class="cls-4" x="33.13" y="19.87" width="2.83" height="2.83"/><rect class="cls-4" x="24.43" y="14.06" width="2.83" height="2.83"/><rect class="cls-4" x="36.13" y="14.06" width="2.83" height="2.83"/><rect class="cls-4" x="24.43" y="11.2" width="2.83" height="2.83"/><rect class="cls-4" x="36.13" y="11.2" width="2.83" height="2.83"/></svg>