<?xml version="1.0" encoding="utf-8"?>
<!-- Generator: Adobe Illustrator 19.2.1, SVG Export Plug-In . SVG Version: 6.00 Build 0)  -->
<svg version="1.1" id="Layer_1" xmlns="http://www.w3.org/2000/svg" xmlns:xlink="http://www.w3.org/1999/xlink" x="0px" y="0px"
	 viewBox="0 0 129 73.8" style="enable-background:new 0 0 129 73.8;" xml:space="preserve">
<style type="text/css">
	.st0{fill:#FFFFFF;stroke:#5B5B5B;stroke-width:2.83;stroke-miterlimit:10;}
	.st1{fill:#31D8F4;}
	.st2{fill:#CECECE;}
	.st3{fill:none;}
	.st4{fill:#5B5B5B;}
	.st5{fill:#EAEAEA;}
	.st6{enable-background:new    ;}
	.st7{fill:#FFFFFF;}
</style>
<title>cuteputers</title>
<rect x="69.2" y="1.3" class="st0" width="58.3" height="39"/>
<rect x="1.2" y="23" class="st1" width="61.6" height="31.3"/>
<path class="st2" d="M44.8,72.5c0.1,0.6-0.4,1.1-1,1.2c0,0,0,0,0,0H20.2c-0.6,0-1-0.5-1-1.1c0,0,0,0,0,0c3.4-2.6,5.3-6.6,5.2-10.8
	c0-9.4,0.2-1,0.6-1h14c0.4,0,0.6-8.5,0.6,1C39.5,65.9,41.4,70,44.8,72.5z"/>
<polygon class="st3" points="3.3,54.3 60.6,54.4 60.6,24.6 3.3,24.5 "/>
<path class="st4" d="M64,22.1c0-0.8-0.7-1.5-1.5-1.5c0,0,0,0-0.1,0H1.6c-0.9,0.1-1.4,0.9-1.3,1.8v34.2h63.7L64,22.1z M60.3,52.7h-57
	l0.1-28h56.9V52.7z"/>
<path class="st5" d="M1.5,64.1l60.9,0.1c0.9-0.1,1.6-0.9,1.6-1.8v-5.7h-64v5.6C-0.1,62.2,0.6,64.1,1.5,64.1z"/>
<rect x="27.7" y="40.5" class="st4" width="2.8" height="2.8"/>
<rect x="30.5" y="43.3" class="st4" width="2.8" height="2.8"/>
<rect x="33.4" y="40.5" class="st4" width="2.8" height="2.8"/>
<rect x="24.7" y="34.7" class="st4" width="2.8" height="2.8"/>
<rect x="36.4" y="34.7" class="st4" width="2.8" height="2.8"/>
<rect x="21.8" y="34.8" class="st4" width="2.8" height="2.8"/>
<rect x="39.3" y="34.8" class="st4" width="2.8" height="2.8"/>
<g class="st6">
	<path class="st4" d="M74.8,11.8v-1.6h4.5v1.6H74.8z M74.8,16.4v-4.7h1.5v4.7H74.8z M74.8,18v-1.6h4.5V18H74.8z M77.8,16.4v-4.7h1.5
		v4.7H77.8z"/>
	<path class="st4" d="M81.6,13.3v-1.6h1.5v1.6H81.6z M83.1,18v-7.8h1.5V18H83.1z"/>
	<path class="st4" d="M86.8,13.3v-1.6h1.5v1.6H86.8z M88.3,18v-7.8h1.5V18H88.3z"/>
	<path class="st4" d="M92.1,11.8v-1.6h4.5v1.6H92.1z M92.1,16.4v-4.7h1.5v4.7H92.1z M92.1,18v-1.6h4.5V18H92.1z M95.1,16.4v-4.7h1.5
		v4.7H95.1z"/>
	<path class="st4" d="M98.8,13.3v-1.6h1.5v1.6H98.8z M100.3,18v-7.8h1.5V18H100.3z"/>
	<path class="st4" d="M104.1,11.8v-1.6h4.5v1.6H104.1z M104.1,16.4v-4.7h1.5v4.7H104.1z M104.1,18v-1.6h4.5V18H104.1z M107.1,16.4
		v-4.7h1.5v4.7H107.1z"/>
	<path class="st4" d="M111,11.8v-1.6h4.5v1.6H111z M111,16.4v-4.7h1.5v4.7H111z M111,18v-1.6h4.5V18H111z M114,16.4v-4.7h1.5v4.7
		H114z"/>
	<path class="st4" d="M117.8,11.8v-1.6h4.5v1.6H117.8z M117.8,16.4v-4.7h1.5v4.7H117.8z M117.8,18v-1.6h4.5V18H117.8z M120.8,16.4
		v-4.7h1.5v4.7H120.8z"/>
</g>
<g class="st6">
	<path class="st4" d="M74.8,26.2v-1.6h4.5v1.6H74.8z M74.8,30.8v-4.7h1.5v4.7H74.8z M74.8,32.4v-1.6h4.5v1.6H74.8z M77.8,30.8v-4.7
		h1.5v4.7H77.8z"/>
	<path class="st4" d="M81.8,27.7v-1.6h1.5v1.6H81.8z M83.3,32.4v-7.8h1.5v7.8H83.3z"/>
	<path class="st4" d="M87.3,27.7v-1.6h1.5v1.6H87.3z M88.8,32.4v-7.8h1.5v7.8H88.8z"/>
	<path class="st4" d="M92.8,26.2v-1.6h4.5v1.6H92.8z M92.8,30.8v-4.7h1.5v4.7H92.8z M92.8,32.4v-1.6h4.5v1.6H92.8z M95.8,30.8v-4.7
		h1.5v4.7H95.8z"/>
	<path class="st4" d="M99.8,27.7v-1.6h1.5v1.6H99.8z M101.3,32.4v-7.8h1.5v7.8H101.3z"/>
	<path class="st4" d="M105.3,26.2v-1.6h4.5v1.6H105.3z M105.3,30.8v-4.7h1.5v4.7H105.3z M105.3,32.4v-1.6h4.5v1.6H105.3z
		 M108.3,30.8v-4.7h1.5v4.7H108.3z"/>
	<path class="st4" d="M112.4,26.2v-1.6h4.5v1.6H112.4z M112.4,30.8v-4.7h1.5v4.7H112.4z M112.4,32.4v-1.6h4.5v1.6H112.4z
		 M115.4,30.8v-4.7h1.5v4.7H115.4z"/>
	<path class="st4" d="M119.4,27.7v-1.6h1.5v1.6H119.4z M120.9,32.4v-7.8h1.5v7.8H120.9z"/>
</g>
<rect x="70.6" y="36.1" class="st7" width="5.8" height="8"/>
<rect x="73.5" y="41.8" class="st4" width="2.8" height="2.8"/>
<rect x="70.7" y="44.6" class="st4" width="2.8" height="2.8"/>
<rect x="67.8" y="47.4" class="st4" width="2.8" height="2.8"/>
<rect x="67.8" y="39.6" class="st4" width="2.8" height="10"/>
</svg>
